<mxfile host="app.diagrams.net" agent="Mozilla/5.0 (Macintosh; Intel Mac OS X 10_15_7) AppleWebKit/537.36 (KHTML, like Gecko) Chrome/136.0.0.0 Safari/537.36" version="27.1.1">
  <diagram name="第 1 页" id="NxA5ZHaPWVLguhysDf8e">
    <mxGraphModel dx="946" dy="610" grid="1" gridSize="10" guides="1" tooltips="1" connect="1" arrows="1" fold="1" page="1" pageScale="1" pageWidth="827" pageHeight="1169" math="0" shadow="0">
      <root>
        <mxCell id="0" />
        <mxCell id="1" parent="0" />
        <mxCell id="kEarLXxdJfwUQbJlJyUk-8" style="edgeStyle=orthogonalEdgeStyle;rounded=0;orthogonalLoop=1;jettySize=auto;html=1;exitX=0.5;exitY=1;exitDx=0;exitDy=0;entryX=0;entryY=0.5;entryDx=0;entryDy=0;" edge="1" parent="1" source="kEarLXxdJfwUQbJlJyUk-1" target="kEarLXxdJfwUQbJlJyUk-5">
          <mxGeometry relative="1" as="geometry" />
        </mxCell>
        <mxCell id="kEarLXxdJfwUQbJlJyUk-9" value="P(w_mutex)" style="edgeLabel;html=1;align=center;verticalAlign=middle;resizable=0;points=[];" vertex="1" connectable="0" parent="kEarLXxdJfwUQbJlJyUk-8">
          <mxGeometry x="0.2429" relative="1" as="geometry">
            <mxPoint y="-10" as="offset" />
          </mxGeometry>
        </mxCell>
        <mxCell id="kEarLXxdJfwUQbJlJyUk-1" value="P(w_mutex)&lt;div&gt;&lt;b&gt;writing&lt;/b&gt;&lt;/div&gt;&lt;div&gt;V(w_mutex)&lt;/div&gt;" style="ellipse;whiteSpace=wrap;html=1;aspect=fixed;fillColor=#dae8fc;strokeColor=#6c8ebf;" vertex="1" parent="1">
          <mxGeometry x="200" y="160" width="80" height="80" as="geometry" />
        </mxCell>
        <mxCell id="kEarLXxdJfwUQbJlJyUk-2" value="P(c_mutex)&lt;div&gt;&lt;b&gt;rcnt&lt;/b&gt;&lt;/div&gt;&lt;div&gt;V(c_mutex)&lt;/div&gt;" style="ellipse;whiteSpace=wrap;html=1;aspect=fixed;fillColor=#dae8fc;strokeColor=#6c8ebf;" vertex="1" parent="1">
          <mxGeometry x="360" y="160" width="80" height="80" as="geometry" />
        </mxCell>
        <mxCell id="kEarLXxdJfwUQbJlJyUk-4" value="" style="edgeStyle=orthogonalEdgeStyle;rounded=0;orthogonalLoop=1;jettySize=auto;html=1;" edge="1" parent="1" source="kEarLXxdJfwUQbJlJyUk-3" target="kEarLXxdJfwUQbJlJyUk-1">
          <mxGeometry relative="1" as="geometry" />
        </mxCell>
        <mxCell id="kEarLXxdJfwUQbJlJyUk-3" value="writer" style="rounded=1;whiteSpace=wrap;html=1;fillColor=#d5e8d4;strokeColor=#82b366;" vertex="1" parent="1">
          <mxGeometry x="80" y="180" width="80" height="40" as="geometry" />
        </mxCell>
        <mxCell id="kEarLXxdJfwUQbJlJyUk-13" value="" style="edgeStyle=orthogonalEdgeStyle;rounded=0;orthogonalLoop=1;jettySize=auto;html=1;" edge="1" parent="1" source="kEarLXxdJfwUQbJlJyUk-5" target="kEarLXxdJfwUQbJlJyUk-2">
          <mxGeometry relative="1" as="geometry" />
        </mxCell>
        <mxCell id="kEarLXxdJfwUQbJlJyUk-18" style="edgeStyle=orthogonalEdgeStyle;rounded=0;orthogonalLoop=1;jettySize=auto;html=1;exitX=1;exitY=0.5;exitDx=0;exitDy=0;entryX=0.5;entryY=1;entryDx=0;entryDy=0;" edge="1" parent="1" source="kEarLXxdJfwUQbJlJyUk-5" target="kEarLXxdJfwUQbJlJyUk-17">
          <mxGeometry relative="1" as="geometry" />
        </mxCell>
        <mxCell id="kEarLXxdJfwUQbJlJyUk-5" value="first reader" style="rounded=1;whiteSpace=wrap;html=1;fillColor=#d5e8d4;strokeColor=#82b366;" vertex="1" parent="1">
          <mxGeometry x="360" y="280" width="80" height="40" as="geometry" />
        </mxCell>
        <mxCell id="kEarLXxdJfwUQbJlJyUk-10" style="edgeStyle=orthogonalEdgeStyle;rounded=0;orthogonalLoop=1;jettySize=auto;html=1;exitX=0;exitY=0.5;exitDx=0;exitDy=0;entryX=0.5;entryY=0;entryDx=0;entryDy=0;" edge="1" parent="1" source="kEarLXxdJfwUQbJlJyUk-6" target="kEarLXxdJfwUQbJlJyUk-1">
          <mxGeometry relative="1" as="geometry" />
        </mxCell>
        <mxCell id="kEarLXxdJfwUQbJlJyUk-11" value="V(w_mutex)" style="edgeLabel;html=1;align=center;verticalAlign=middle;resizable=0;points=[];" vertex="1" connectable="0" parent="kEarLXxdJfwUQbJlJyUk-10">
          <mxGeometry x="-0.1" relative="1" as="geometry">
            <mxPoint x="13" y="10" as="offset" />
          </mxGeometry>
        </mxCell>
        <mxCell id="kEarLXxdJfwUQbJlJyUk-12" value="" style="edgeStyle=orthogonalEdgeStyle;rounded=0;orthogonalLoop=1;jettySize=auto;html=1;" edge="1" parent="1" source="kEarLXxdJfwUQbJlJyUk-6" target="kEarLXxdJfwUQbJlJyUk-2">
          <mxGeometry relative="1" as="geometry" />
        </mxCell>
        <mxCell id="kEarLXxdJfwUQbJlJyUk-6" value="last reader" style="rounded=1;whiteSpace=wrap;html=1;fillColor=#d5e8d4;strokeColor=#82b366;" vertex="1" parent="1">
          <mxGeometry x="360" y="80" width="80" height="40" as="geometry" />
        </mxCell>
        <mxCell id="kEarLXxdJfwUQbJlJyUk-19" style="edgeStyle=orthogonalEdgeStyle;rounded=0;orthogonalLoop=1;jettySize=auto;html=1;exitX=0.5;exitY=0;exitDx=0;exitDy=0;entryX=1;entryY=0.5;entryDx=0;entryDy=0;" edge="1" parent="1" source="kEarLXxdJfwUQbJlJyUk-17" target="kEarLXxdJfwUQbJlJyUk-6">
          <mxGeometry relative="1" as="geometry" />
        </mxCell>
        <mxCell id="kEarLXxdJfwUQbJlJyUk-20" style="edgeStyle=orthogonalEdgeStyle;rounded=0;orthogonalLoop=1;jettySize=auto;html=1;exitX=0;exitY=0.5;exitDx=0;exitDy=0;" edge="1" parent="1" source="kEarLXxdJfwUQbJlJyUk-17" target="kEarLXxdJfwUQbJlJyUk-2">
          <mxGeometry relative="1" as="geometry" />
        </mxCell>
        <mxCell id="kEarLXxdJfwUQbJlJyUk-17" value="readers..." style="rounded=1;whiteSpace=wrap;html=1;fillColor=#d5e8d4;strokeColor=#82b366;" vertex="1" parent="1">
          <mxGeometry x="480" y="180" width="80" height="40" as="geometry" />
        </mxCell>
        <mxCell id="kEarLXxdJfwUQbJlJyUk-21" value="&lt;b&gt;&lt;font style=&quot;color: rgb(255, 0, 0);&quot;&gt;Reader Priority&lt;/font&gt;&lt;/b&gt;" style="text;html=1;align=center;verticalAlign=middle;whiteSpace=wrap;rounded=0;" vertex="1" parent="1">
          <mxGeometry x="465" y="150" width="110" height="30" as="geometry" />
        </mxCell>
        <mxCell id="kEarLXxdJfwUQbJlJyUk-22" value="w_mutex = c_mutex = 1" style="text;html=1;align=center;verticalAlign=middle;whiteSpace=wrap;rounded=0;" vertex="1" parent="1">
          <mxGeometry x="80" y="270" width="140" height="30" as="geometry" />
        </mxCell>
        <mxCell id="kEarLXxdJfwUQbJlJyUk-24" value="rcnt = 0" style="text;html=1;align=center;verticalAlign=middle;whiteSpace=wrap;rounded=0;" vertex="1" parent="1">
          <mxGeometry x="290" y="185" width="60" height="30" as="geometry" />
        </mxCell>
      </root>
    </mxGraphModel>
  </diagram>
</mxfile>
